#!OML:ASF H:\Dans Jumps\Project 1\Capture day 1\Session 1\subject.ASF
:FULLY-SPECIFIED
:DEGREES
589
root -0.189279 17.6726 10.6027 7.16555 -0.570418 -1.57012
lowerback -1.06636 0.016885 0.0210538
upperback 1.50861 -0.00493046 1.39576
thorax 2.14411 -0.0142273 1.41941
lowerneck -14.7402 -0.129052 -2.21283
upperneck 11.7929 0.10833 1.24321
head 5.98526 0.0510799 0.764735
rclavicle -2.33572e-015 -2.5842e-015
rhumerus -22.5336 -21.4175 -80.9449
rradius 20.9934
rwrist 39.523
rhand -21.0485 -27.5961
rfingers 7.12502
rthumb 5.32749 -57.5091
lclavicle -2.33572e-015 -2.5842e-015
lhumerus -24.2164 6.28065 85.2294
lradius 14.6044
lwrist -2.54979
lhand -25.4563 -6.29915
lfingers 7.12502
lthumb 1.07089 23.6779
rfemur -13.194 -1.86088 21.1252
rtibia 21.779
rfoot -14.3154 -3.48617
rtoes 5.15164
lfemur -14.2407 7.43211 -17.6954
ltibia 19.9328
lfoot -10.4656 4.64916
ltoes -11.0961
590
root -0.190295 17.6725 10.6023 7.16356 -0.604099 -1.5564
lowerback -1.07692 0.0270621 0.00665787
upperback 1.50761 0.00910835 1.38367
thorax 2.14866 -0.00735544 1.4155
lowerneck -14.7576 -0.112944 -2.16301
upperneck 11.7318 0.125143 1.20965
head 5.96854 0.0591126 0.747354
rclavicle 2.85753e-015 -3.18055e-015
rhumerus -22.6092 -21.54 -80.8979
rradius 20.9314
rwrist 39.653
rhand -21.0012 -27.5948
rfingers 7.12502
rthumb 5.37316 -57.5067
lclavicle 2.85753e-015 -3.18055e-015
lhumerus -24.264 6.41649 85.1677
lradius 14.5963
lwrist -2.63071
lhand -25.4695 -6.45109
lfingers 7.12502
lthumb 1.05816 23.526
rfemur -13.2049 -1.86168 21.1122
rtibia 21.7941
rfoot -14.3266 -3.45908
rtoes 5.16614
lfemur -14.2237 7.44109 -17.7071
ltibia 19.9119
lfoot -10.4526 4.66803
ltoes -11.0832
591
root -0.191273 17.6724 10.6017 7.16399 -0.643677 -1.54238
lowerback -1.09183 0.0384096 -0.00866687
upperback 1.50654 0.0247025 1.37142
thorax 2.15555 0.000271345 1.412
lowerneck -14.7837 -0.101278 -2.13254
upperneck 11.6872 0.137448 1.19431
head 5.95853 0.0654856 0.738572
rclavicle 2.98177e-015 -1.78906e-015
rhumerus -22.6813 -21.6649 -80.8522
rradius 20.8702
rwrist 39.7744
rhand -20.9573 -27.5954
rfingers 7.12502
rthumb 5.41562 -57.5062
lclavicle 2.98177e-015 -1.78906e-015
lhumerus -24.3065 6.50103 85.1287
lradius 14.6104
lwrist -2.64382
lhand -25.4487 -6.46008
lfingers 7.12502
lthumb 1.07821 23.5169
rfemur -13.2198 -1.85676 21.0981
rtibia 21.8095
rfoot -14.3367 -3.43041
rtoes 5.19285
lfemur -14.2093 7.45107 -17.7195
ltibia 19.8911
lfoot -10.4369 4.68997
ltoes -11.07
592
root -0.192247 17.6722 10.6011 7.16564 -0.689651 -1.52902
lowerback -1.1072 0.0507503 -0.0247837
upperback 1.50301 0.0416684 1.35928
thorax 2.16014 0.00858446 1.40911
lowerneck -14.8135 -0.0989414 -2.13593
upperneck 11.6586 0.139872 1.20916
head 5.95437 0.0678867 0.74403
rclavicle -1.39149e-015 -4.57205e-015
rhumerus -22.7536 -21.7899 -80.806
rradius 20.8082
rwrist 39.8894
rhand -20.9282 -27.5834
rfingers 7.12502
rthumb 5.44364 -57.4934
lclavicle -1.39149e-015 -4.57205e-015
lhumerus -24.3445 6.53213 85.1116
lradius 14.6383
lwrist -2.59464
lhand -25.4084 -6.37669
lfingers 7.12502
lthumb 1.11712 23.6001
rfemur -13.2365 -1.84508 21.0841
rtibia 21.8234
rfoot -14.3455 -3.40113
rtoes 5.22605
lfemur -14.1954 7.46523 -17.7313
ltibia 19.8701
lfoot -10.4211 4.71408
ltoes -11.064
593
root -0.192966 17.6721 10.6004 7.16713 -0.736131 -1.51751
lowerback -1.1192 0.0629754 -0.0349608
upperback 1.49527 0.0584462 1.34637
thorax 2.15851 0.0169418 1.40206
lowerneck -14.8464 -0.104097 -2.16603
upperneck 11.6419 0.134175 1.24906
head 5.95459 0.0671066 0.761081
rclavicle -3.3048e-015 -8.34896e-015
rhumerus -22.8316 -21.9147 -80.7579
rradius 20.7467
rwrist 39.9956
rhand -20.9098 -27.5631
rfingers 7.12502
rthumb 5.46143 -57.4727
lclavicle -3.3048e-015 -8.34896e-015
lhumerus -24.3839 6.51715 85.1119
lradius 14.6722
lwrist -2.49646
lhand -25.3831 -6.29971
lfingers 7.12502
lthumb 1.14154 23.677
rfemur -13.2514 -1.84094 21.0711
rtibia 21.8334
rfoot -14.3532 -3.36265
rtoes 5.25794
lfemur -14.1808 7.48187 -17.742
ltibia 19.8485
lfoot -10.4085 4.73519
ltoes -11.0458
594
root -0.193667 17.6721 10.5996 7.16636 -0.782659 -1.50542
lowerback -1.13024 0.0749363 -0.0452398
upperback 1.48795 0.074897 1.33247
thorax 2.1568 0.0251416 1.39405
lowerneck -14.8793 -0.111724 -2.2023
upperneck 11.6289 0.125565 1.29501
head 5.95602 0.0651105 0.7808
rclavicle -3.27995e-015 -4.17448e-015
rhumerus -22.9086 -22.0372 -80.7119
rradius 20.6875
rwrist 40.0911
rhand -20.9039 -27.5394
rfingers 7.12502
rthumb 5.46711 -57.4489
lclavicle -3.27995e-015 -4.17448e-015
lhumerus -24.4143 6.46895 85.1255
lradius 14.71
lwrist -2.35483
lhand -25.351 -6.21829
lfingers 7.12502
lthumb 1.17258 23.7582
rfemur -13.2619 -1.83463 21.0574
rtibia 21.8389
rfoot -14.3589 -3.3275
rtoes 5.28004
lfemur -14.1629 7.49902 -17.7528
ltibia 19.8259
lfoot -10.3975 4.75443
ltoes -11.0225
595
root -0.194317 17.6721 10.5988 7.16337 -0.830604 -1.49747
lowerback -1.13917 0.0875022 -0.0496904
upperback 1.47875 0.0920667 1.31849
thorax 2.15195 0.0338119 1.3827
lowerneck -14.8844 -0.124573 -2.24499
upperneck 11.6029 0.109947 1.34622
head 5.94884 0.0598268 0.80248
rclavicle -3.3048e-015 1.59028e-015
rhumerus -22.9906 -22.1593 -80.6648
rradius 20.6315
rwrist 40.1828
rhand -20.8999 -27.5165
rfingers 7.12502
rthumb 5.47096 -57.4258
lclavicle -3.3048e-015 1.59028e-015
lhumerus -24.4425 6.40015 85.1477
lradius 14.7447
lwrist -2.19248
lhand -25.3371 -6.17752
lfingers 7.12502
lthumb 1.18602 23.7989
rfemur -13.2669 -1.82599 21.0482
rtibia 21.8381
rfoot -14.3617 -3.29285
rtoes 5.29095
lfemur -14.1422 7.51936 -17.7587
ltibia 19.8034
lfoot -10.3897 4.77142
ltoes -10.9867
596
root -0.194936 17.6723 10.5979 7.15731 -0.878122 -1.49084
lowerback -1.14861 0.0996429 -0.0519369
upperback 1.47213 0.108605 1.3037
thorax 2.15005 0.0421896 1.36927
lowerneck -14.8849 -0.136177 -2.27361
upperneck 11.5733 0.094791 1.38496
head 5.93978 0.0544037 0.817929
rclavicle -2.5842e-015 3.77691e-015
rhumerus -23.0662 -22.2837 -80.621
rradius 20.5751
rwrist 40.2776
rhand -20.901 -27.4971
rfingers 7.12502
rthumb 5.46992 -57.4065
lclavicle -2.5842e-015 3.77691e-015
lhumerus -24.4686 6.32369 85.1759
lradius 14.7888
lwrist -2.01522
lhand -25.3185 -6.11252
lfingers 7.12502
lthumb 1.20397 23.8638
rfemur -13.2649 -1.81633 21.0405
rtibia 21.8309
rfoot -14.3633 -3.25976
rtoes 5.30154
lfemur -14.1176 7.53974 -17.7624
ltibia 19.7808
lfoot -10.3848 4.78638
ltoes -10.9392
597
root -0.195516 17.6725 10.597 7.14948 -0.927062 -1.4901
lowerback -1.15912 0.112191 -0.0472063
upperback 1.4659 0.125508 1.28955
thorax 2.14918 0.0508506 1.35261
lowerneck -14.8738 -0.143573 -2.28035
upperneck 11.5401 0.0832593 1.40451
head 5.92758 0.0501652 0.824022
rclavicle -2.73329e-016 3.77691e-015
rhumerus -23.1371 -22.4085 -80.5798
rradius 20.5173
rwrist 40.3779
rhand -20.8953 -27.4853
rfingers 7.12502
rthumb 5.47542 -57.3946
lclavicle -2.73329e-016 3.77691e-015
lhumerus -24.5015 6.25465 85.2051
lradius 14.8433
lwrist -1.84701
lhand -25.2943 -6.01849
lfingers 7.12502
lthumb 1.22731 23.9577
rfemur -13.2571 -1.80335 21.0392
rtibia 21.8162
rfoot -14.3612 -3.22788
rtoes 5.31252
lfemur -14.091 7.56144 -17.7597
ltibia 19.7592
lfoot -10.3807 4.80312
ltoes -10.8935
598
root -0.196058 17.6728 10.5961 7.1407 -0.978796 -1.49254
lowerback -1.17245 0.124754 -0.0396145
upperback 1.46103 0.142322 1.27605
thorax 2.1513 0.059491 1.33503
lowerneck -14.8565 -0.14256 -2.25724
upperneck 11.5048 0.0804947 1.39774
head 5.91357 0.049404 0.817701
rclavicle 5.56597e-015 1.39149e-015
rhumerus -23.1983 -22.5314 -80.542
rradius 20.4553
rwrist 40.4885
rhand -20.8834 -27.4863
rfingers 7.12502
rthumb 5.48697 -57.3953
lclavicle 5.56597e-015 1.39149e-015
lhumerus -24.5369 6.19277 85.2367
lradius 14.9044
lwrist -1.69131
lhand -25.2564 -5.88682
lfingers 7.12502
lthumb 1.26391 24.0892
rfemur -13.2456 -1.78664 21.0411
rtibia 21.7964
rfoot -14.3559 -3.19559
rtoes 5.32629
lfemur -14.0625 7.58591 -17.7536
ltibia 19.7371
lfoot -10.3775 4.81951
ltoes -10.8406
599
root -0.196521 17.6732 10.5953 7.13276 -1.03154 -1.4991
lowerback -1.18857 0.137141 -0.0271559
upperback 1.45549 0.158755 1.26373
thorax 2.15435 0.0680073 1.31592
lowerneck -14.8171 -0.136312 -2.21447
upperneck 11.4601 0.08264 1.37427
head 5.89281 0.050542 0.803265
rclavicle 9.44227e-016 1.39149e-015
rhumerus -23.2535 -22.6433 -80.5085
rradius 20.3951
rwrist 40.6005
rhand -20.8568 -27.5008
rfingers 7.12502
rthumb 5.51263 -57.4091
lclavicle 9.44227e-016 1.39149e-015
lhumerus -24.5755 6.14639 85.2667
lradius 14.9663
lwrist -1.56242
lhand -25.2014 -5.73382
lfingers 7.12502
lthumb 1.31704 24.2419
rfemur -13.2333 -1.76879 21.0473
rtibia 21.7728
rfoot -14.3473 -3.16257
rtoes 5.34127
lfemur -14.0345 7.60804 -17.7429
ltibia 19.714
lfoot -10.3724 4.83788
ltoes -10.7717
600
root -0.196984 17.6737 10.5943 7.12779 -1.08752 -1.50348
lowerback -1.20637 0.149609 -0.0184235
upperback 1.44748 0.175387 1.25169
thorax 2.15579 0.076574 1.2992
lowerneck -14.7643 -0.128288 -2.16948
upperneck 11.4143 0.0870344 1.34685
head 5.86944 0.0525213 0.7874
rclavicle 5.14355e-015 -4.57205e-015
rhumerus -23.3029 -22.7353 -80.4806
rradius 20.3341
rwrist 40.7002
rhand -20.8227 -27.5233
rfingers 7.12502
rthumb 5.54557 -57.4307
lclavicle 5.14355e-015 -4.57205e-015
lhumerus -24.6165 6.12102 85.2938
lradius 15.0303
lwrist -1.46779
lhand -25.1527 -5.60892
lfingers 7.12502
lthumb 1.36405 24.3665
rfemur -13.2253 -1.74542 21.051
rtibia 21.7483
rfoot -14.3356 -3.13184
rtoes 5.35994
lfemur -14.0091 7.62894 -17.7351
ltibia 19.6878
lfoot -10.3626 4.8601
ltoes -10.7014
601
root -0.197127 17.6743 10.5934 7.12228 -1.13999 -1.50553
lowerback -1.22364 0.160368 -0.00887286
upperback 1.43769 0.189737 1.23995
thorax 2.15518 0.084022 1.28227
lowerneck -14.7202 -0.117252 -2.13116
upperneck 11.3813 0.0959998 1.32671
head 5.85149 0.0569784 0.775415
rclavicle -1.14301e-015 7.55382e-015
rhumerus -23.3511 -22.8036 -80.4568
rradius 20.2784
rwrist 40.7804
rhand -20.7798 -27.5492
rfingers 7.12502
rthumb 5.58693 -57.4555
lclavicle -1.14301e-015 7.55382e-015
lhumerus -24.6591 6.10064 85.3228
lradius 15.0787
lwrist -1.40269
lhand -25.133 -5.59465
lfingers 7.12502
lthumb 1.38307 24.3806
rfemur -13.2163 -1.73532 21.051
rtibia 21.724
rfoot -14.3244 -3.09113
rtoes 5.37587
lfemur -13.9819 7.65002 -17.7314
ltibia 19.6589
lfoot -10.3538 4.87917
ltoes -10.6293
602
root -0.197261 17.6748 10.5924 7.11847 -1.19044 -1.50577
lowerback -1.24429 0.169976 -0.0024013
upperback 1.429 0.20256 1.22934
thorax 2.15762 0.0906354 1.26819
lowerneck -14.6935 -0.105876 -2.10446
upperneck 11.3624 0.106788 1.31622
head 5.84087 0.0625663 0.768627
rclavicle 4.5472e-015 1.78906e-015
rhumerus -23.3916 -22.8543 -80.4386
rradius 20.2296
rwrist 40.8519
rhand -20.7387 -27.5588
rfingers 7.12502
rthumb 5.62666 -57.4641
lclavicle 4.5472e-015 1.78906e-015
lhumerus -24.6928 6.09106 85.3511
lradius 15.1098
lwrist -1.37042
lhand -25.1161 -5.66055
lfingers 7.12502
lthumb 1.39943 24.3146
rfemur -13.2106 -1.72142 21.0491
rtibia 21.7017
rfoot -14.312 -3.05568
rtoes 5.4017
lfemur -13.956 7.66708 -17.7299
ltibia 19.6261
lfoot -10.3396 4.90107
ltoes -10.5743
